<svg width="20" height="20" viewBox="0 0 20 20" fill="none" xmlns="http://www.w3.org/2000/svg">
<path d="M13.6625 10.2248C14.1372 10.2248 14.5219 9.84002 14.5219 9.36537C14.5219 8.89072 14.1372 8.50598 13.6625 8.50598C13.1879 8.50598 12.8031 8.89072 12.8031 9.36537C12.8031 9.84002 13.1879 10.2248 13.6625 10.2248Z" stroke="#F37622" stroke-width="0.826154" stroke-linecap="round" stroke-linejoin="round"/>
<path d="M16.0641 4.81927V6.25699C15.8633 6.23289 15.6304 6.21683 15.3814 6.21683H11.9437C10.2248 6.21683 9.65455 6.78714 9.65455 8.506V12.6104H4.81927C2.24901 12.6104 1.60645 11.9678 1.60645 9.39754V4.81927C1.60645 2.24901 2.24901 1.60645 4.81927 1.60645H12.8513C15.4216 1.60645 16.0641 2.24901 16.0641 4.81927Z" stroke="#F37622" stroke-width="0.826154" stroke-linecap="round" stroke-linejoin="round"/>
<path d="M7.22888 12.6104V16.0641" stroke="#F37622" stroke-width="0.826154" stroke-linecap="round" stroke-linejoin="round"/>
<path d="M1.60645 9.55811H9.6385" stroke="#F37622" stroke-width="0.826154" stroke-linecap="round" stroke-linejoin="round"/>
<path d="M4.77905 16.0641H9.63843" stroke="#F37622" stroke-width="0.826154" stroke-linecap="round" stroke-linejoin="round"/>
<path d="M13.6625 10.2248C14.1372 10.2248 14.5219 9.84002 14.5219 9.36537C14.5219 8.89072 14.1372 8.50598 13.6625 8.50598C13.1879 8.50598 12.8031 8.89072 12.8031 9.36537C12.8031 9.84002 13.1879 10.2248 13.6625 10.2248Z" stroke="#F37622" stroke-width="0.826154" stroke-miterlimit="10" stroke-linecap="round" stroke-linejoin="round"/>
<path d="M16.0641 6.25695C15.8633 6.23285 15.6304 6.2168 15.3814 6.2168H11.9437C10.2248 6.2168 9.65454 6.7871 9.65454 8.50596V15.3814C9.65454 17.1003 10.2248 17.6705 11.9437 17.6705H15.3814C17.1003 17.6705 17.6705 17.1003 17.6705 15.3814V8.50596C17.6705 7.0361 17.2529 6.40956 16.0641 6.25695ZM13.6626 8.50596C14.1364 8.50596 14.522 8.89146 14.522 9.36535C14.522 9.83924 14.1364 10.2248 13.6626 10.2248C13.1887 10.2248 12.8031 9.83924 12.8031 9.36535C12.8031 8.89146 13.1887 8.50596 13.6626 8.50596ZM13.6626 15.3814C12.7148 15.3814 11.9437 14.6103 11.9437 13.6625C11.9437 13.269 12.0802 12.8995 12.3051 12.6103C12.6184 12.2087 13.1083 11.9437 13.6626 11.9437C14.0963 11.9437 14.4898 12.1043 14.787 12.3613C15.1485 12.6826 15.3814 13.1485 15.3814 13.6625C15.3814 14.6103 14.6103 15.3814 13.6626 15.3814Z" stroke="#F37622" stroke-width="0.826154" stroke-miterlimit="10" stroke-linecap="round" stroke-linejoin="round"/>
<path d="M15.3814 13.6625C15.3814 14.6103 14.6104 15.3813 13.6626 15.3813C12.7148 15.3813 11.9437 14.6103 11.9437 13.6625C11.9437 13.2689 12.0803 12.8994 12.3052 12.6103C12.6184 12.2087 13.1084 11.9436 13.6626 11.9436C14.0963 11.9436 14.4899 12.1043 14.7871 12.3613C15.1485 12.6826 15.3814 13.1484 15.3814 13.6625Z" stroke="#F37622" stroke-width="0.826154" stroke-miterlimit="10" stroke-linecap="round" stroke-linejoin="round"/>
<path d="M13.6625 10.2248C14.1372 10.2248 14.5219 9.84002 14.5219 9.36537C14.5219 8.89072 14.1372 8.50598 13.6625 8.50598C13.1879 8.50598 12.8031 8.89072 12.8031 9.36537C12.8031 9.84002 13.1879 10.2248 13.6625 10.2248Z" stroke="#F37622" stroke-width="0.826154" stroke-miterlimit="10" stroke-linecap="round" stroke-linejoin="round"/>
</svg>
