<svg width="15" height="15" viewBox="0 0 15 15" fill="none" xmlns="http://www.w3.org/2000/svg">
<path d="M3.95145 12.8597H10.0774C11.6907 12.8597 12.3336 11.8719 12.4096 10.6677L12.7136 5.83948C12.7954 4.57689 11.79 3.5072 10.5216 3.5072C10.165 3.5072 9.83769 3.30261 9.67402 2.98696L9.25316 2.13939C8.98427 1.60747 8.28284 1.16907 7.68661 1.16907H6.34803C5.74597 1.16907 5.04453 1.60747 4.77564 2.13939L4.35478 2.98696C4.19111 3.30261 3.86377 3.5072 3.50721 3.5072C2.23877 3.5072 1.23338 4.57689 1.31521 5.83948L1.61917 10.6677C1.68931 11.8719 2.33814 12.8597 3.95145 12.8597Z" stroke="white" stroke-width="0.779376" stroke-linecap="round" stroke-linejoin="round"/>
<path d="M6.1377 4.67625H7.89129" stroke="white" stroke-width="0.779376" stroke-linecap="round" stroke-linejoin="round"/>
<path d="M7.01448 10.5216C8.06079 10.5216 8.91421 9.66817 8.91421 8.62185C8.91421 7.57554 8.06079 6.72212 7.01448 6.72212C5.96816 6.72212 5.11475 7.57554 5.11475 8.62185C5.11475 9.66817 5.96816 10.5216 7.01448 10.5216Z" stroke="white" stroke-width="0.779376" stroke-linecap="round" stroke-linejoin="round"/>
</svg>
