<svg width="14" height="14" viewBox="0 0 14 14" fill="none" xmlns="http://www.w3.org/2000/svg">
<g clip-path="url(#clip0_314_13718)">
<path d="M4.10819 13.6681C3.83357 13.4854 3.59018 13.2596 3.38737 12.9995C3.16428 12.731 2.95759 12.4493 2.7684 12.1559C2.32446 11.5056 1.9763 10.7947 1.73462 10.0453C1.44429 9.17473 1.3037 8.3403 1.3037 7.52416C1.3037 6.61268 1.50088 5.817 1.88653 5.14841C2.17241 4.62583 2.59273 4.18913 3.104 3.88349C3.59948 3.57574 4.1688 3.40732 4.75196 3.39598C4.95611 3.39598 5.17592 3.42558 5.40923 3.48217C5.57682 3.52961 5.78096 3.60448 6.03037 3.69763C6.34769 3.81994 6.52224 3.89481 6.58144 3.91309C6.7673 3.981 6.92356 4.01059 7.04631 4.01059C7.13946 4.01059 7.27092 3.981 7.42022 3.93573C7.50422 3.90613 7.66266 3.85389 7.88944 3.75683C8.11405 3.675 8.29077 3.60492 8.43137 3.55268C8.64683 3.48913 8.85533 3.43037 9.04119 3.40077C9.26153 3.36603 9.48515 3.35683 9.7076 3.37335C10.0931 3.39854 10.4728 3.48023 10.8345 3.6158C11.4261 3.8539 11.9044 4.22562 12.2605 4.75405C12.11 4.84681 11.9688 4.95379 11.8387 5.07354C11.5556 5.32451 11.3145 5.61915 11.1244 5.94627C10.876 6.39333 10.7472 6.89695 10.7505 7.40837C10.7597 8.03648 10.9207 8.58972 11.238 9.06809C11.4713 9.42262 11.7745 9.72581 12.129 9.9591C12.3106 10.0814 12.4668 10.1654 12.6166 10.222C12.5465 10.4396 12.4716 10.6503 12.3832 10.8593C12.1828 11.3278 11.94 11.777 11.6576 12.2012C11.4061 12.5664 11.2089 12.8385 11.0591 13.0195C10.8258 13.2959 10.6012 13.507 10.3744 13.6542C10.125 13.8196 9.83035 13.9079 9.53088 13.9079C9.32806 13.9157 9.1253 13.8912 8.93019 13.8352C8.76261 13.7787 8.59677 13.7173 8.43354 13.6472C8.26384 13.5693 8.08886 13.5034 7.9099 13.45C7.46753 13.3364 7.00371 13.3357 6.56098 13.4478C6.37947 13.5001 6.20492 13.561 6.03255 13.6359C5.7901 13.7377 5.62905 13.8061 5.5359 13.8352C5.35004 13.8897 5.15721 13.9236 4.9622 13.9349C4.66056 13.9349 4.37937 13.8487 4.10079 13.6742L4.10819 13.6681ZM8.08663 2.95374C7.69226 3.15092 7.31575 3.23493 6.94185 3.20751C6.88308 2.83099 6.94184 2.44577 7.09811 2.02399C7.23115 1.66665 7.42772 1.33633 7.67833 1.04897C7.94299 0.746458 8.26413 0.498504 8.62376 0.319005C9.0068 0.121825 9.372 0.0151817 9.72109 -0.000488281C9.76636 0.393873 9.72109 0.781706 9.57615 1.20088C9.44201 1.57142 9.2458 1.91644 8.99592 2.22117C8.74087 2.52409 8.42788 2.77301 8.07531 2.95331L8.08663 2.95374Z" fill="black"/>
</g>
<defs>
<clipPath id="clip0_314_13718">
<rect width="13.9289" height="13.9289" fill="white"/>
</clipPath>
</defs>
</svg>
