<svg width="11" height="7" viewBox="0 0 11 7" fill="none" xmlns="http://www.w3.org/2000/svg">
<path d="M0.680696 4.02616C1.14938 2.02894 3.10865 0.60984 5.31257 0.60984C7.5158 0.60984 9.47507 2.02894 9.94444 4.02616C9.96303 4.10541 10.0163 4.17487 10.0926 4.21924C10.1689 4.26362 10.262 4.27928 10.3513 4.26278C10.4406 4.24628 10.5188 4.19898 10.5689 4.13127C10.6189 4.06357 10.6365 3.98101 10.6179 3.90175C10.0839 1.6301 7.85047 0 5.31257 0C2.77466 0 0.541191 1.6301 0.00721974 3.90175C-0.011371 3.98101 0.00627733 4.06357 0.0562824 4.13127C0.106287 4.19898 0.184553 4.24628 0.273862 4.26278C0.36317 4.27928 0.456206 4.26362 0.532502 4.21924C0.608799 4.17487 0.662106 4.10541 0.680696 4.02616ZM5.30569 1.82952C5.94361 1.82952 6.5554 2.0544 7.00648 2.45468C7.45756 2.85497 7.71097 3.39787 7.71097 3.96396C7.71097 4.53005 7.45756 5.07295 7.00648 5.47324C6.5554 5.87352 5.94361 6.0984 5.30569 6.0984C4.66778 6.0984 4.05599 5.87352 3.60491 5.47324C3.15383 5.07295 2.90042 4.53005 2.90042 3.96396C2.90042 3.39787 3.15383 2.85497 3.60491 2.45468C4.05599 2.0544 4.66778 1.82952 5.30569 1.82952Z" fill="#838383"/>
</svg>
