<svg width="14" height="14" viewBox="0 0 14 14" fill="none" xmlns="http://www.w3.org/2000/svg">
<g clip-path="url(#clip0_314_13706)">
<path d="M3.43941 8.28531L2.99864 9.93076L1.38764 9.96484C0.90619 9.07185 0.633102 8.05016 0.633102 6.96444C0.633102 5.91456 0.888432 4.9245 1.34102 4.05273H1.34137L2.77561 4.31568L3.40389 5.74131C3.27239 6.12468 3.20072 6.53621 3.20072 6.96444C3.20077 7.4292 3.28496 7.8745 3.43941 8.28531Z" fill="#FBBB00"/>
<path d="M13.1851 5.78162C13.2578 6.16461 13.2958 6.56014 13.2958 6.96438C13.2958 7.41767 13.2481 7.85982 13.1573 8.28632C12.8491 9.73765 12.0438 11.0049 10.9281 11.9018L10.9278 11.9014L9.1213 11.8092L8.86562 10.2132C9.60589 9.77905 10.1844 9.09964 10.4892 8.28632H7.10364V5.78162H10.5385H13.1851Z" fill="#518EF8"/>
<path d="M10.9277 11.9015L10.928 11.9019C9.84303 12.774 8.46473 13.2958 6.96436 13.2958C4.55324 13.2958 2.45696 11.9482 1.38759 9.96493L3.43935 8.2854C3.97403 9.71237 5.35057 10.7282 6.96436 10.7282C7.65801 10.7282 8.30786 10.5407 8.86548 10.2133L10.9277 11.9015Z" fill="#28B446"/>
<path d="M11.0057 2.09064L8.95464 3.76983C8.37753 3.40909 7.69533 3.2007 6.96446 3.2007C5.31414 3.2007 3.91185 4.2631 3.40396 5.74124L1.34141 4.05266H1.34106C2.39478 2.02107 4.5175 0.633057 6.96446 0.633057C8.50067 0.633057 9.90921 1.18027 11.0057 2.09064Z" fill="#F14336"/>
</g>
<defs>
<clipPath id="clip0_314_13706">
<rect width="13.9289" height="13.9289" fill="white"/>
</clipPath>
</defs>
</svg>
