<svg width="12" height="12" viewBox="0 0 12 12" fill="none" xmlns="http://www.w3.org/2000/svg">
<path fill-rule="evenodd" clip-rule="evenodd" d="M5.17252 5.17252V0.574724C5.17252 0.257313 5.42983 0 5.74724 0C6.06465 0 6.32196 0.257313 6.32196 0.574724V5.17252H10.9198C11.2372 5.17252 11.4945 5.42983 11.4945 5.74724C11.4945 6.06465 11.2372 6.32196 10.9198 6.32196H6.32196V10.9198C6.32196 11.2372 6.06465 11.4945 5.74724 11.4945C5.42983 11.4945 5.17252 11.2372 5.17252 10.9198V6.32196H0.574724C0.257313 6.32196 0 6.06465 0 5.74724C0 5.42983 0.257313 5.17252 0.574724 5.17252H5.17252Z" fill="white"/>
</svg>
